<svg width="512" height="512" viewBox="0 0 512 512" fill="none" xmlns="http://www.w3.org/2000/svg">
  <!-- Background -->
  <rect width="512" height="512" rx="100" fill="url(#gradient)"/>
  
  <!-- Mosque silhouette / Islamic pattern -->
  <g fill="white" opacity="0.95">
    <!-- Central dome -->
    <path d="M256 100C200 100 180 160 180 200H332C332 160 312 100 256 100Z"/>
    <circle cx="256" cy="95" r="12"/>
    
    <!-- Main building -->
    <rect x="160" y="200" width="192" height="180" rx="4"/>
    
    <!-- Left minaret -->
    <rect x="120" y="180" width="30" height="200" rx="4"/>
    <path d="M135 180C115 180 110 160 135 140C160 160 155 180 135 180Z"/>
    <circle cx="135" cy="135" r="6"/>
    
    <!-- Right minaret -->
    <rect x="362" y="180" width="30" height="200" rx="4"/>
    <path d="M377 180C357 180 352 160 377 140C402 160 397 180 377 180Z"/>
    <circle cx="377" cy="135" r="6"/>
    
    <!-- AI circuit pattern -->
    <g stroke="white" stroke-width="2" fill="none" opacity="0.4">
      <circle cx="256" cy="290" r="40"/>
      <circle cx="256" cy="290" r="20"/>
      <circle cx="256" cy="290" r="6" fill="white"/>
      
      <!-- Connection lines -->
      <line x1="216" y1="290" x2="180" y2="290"/>
      <line x1="296" y1="290" x2="332" y2="290"/>
      <line x1="256" y1="250" x2="256" y2="220"/>
      <line x1="256" y1="330" x2="256" y2="360"/>
      
      <!-- Corner dots -->
      <circle cx="180" cy="290" r="4" fill="white"/>
      <circle cx="332" cy="290" r="4" fill="white"/>
      <circle cx="256" cy="220" r="4" fill="white"/>
      <circle cx="256" cy="360" r="4" fill="white"/>
    </g>
  </g>
  
  <!-- Text -->
  <text x="256" y="440" text-anchor="middle" fill="white" font-family="Arial, sans-serif" font-size="48" font-weight="bold">TAQWA AI</text>
  
  <!-- Gradient definition -->
  <defs>
    <linearGradient id="gradient" x1="0%" y1="0%" x2="100%" y2="100%">
      <stop offset="0%" stop-color="#1B7D5D"/>
      <stop offset="100%" stop-color="#145C45"/>
    </linearGradient>
  </defs>
</svg>
